<svg version="1.1" id="Layer_1" xmlns="http://www.w3.org/2000/svg" xmlns:xlink="http://www.w3.org/1999/xlink" x="0px" y="0px"
	 width="100%" viewBox="0 0 500 500" enable-background="new 0 0 500 500" xml:space="preserve">
<path fill="#000000" opacity="1.000000" stroke="none" 
	d="
M265.000000,501.000000 
	C176.666687,501.000000 88.833374,501.000000 1.000047,501.000000 
	C1.000031,334.333405 1.000031,167.666794 1.000016,1.000137 
	C167.666565,1.000091 334.333130,1.000091 500.999756,1.000046 
	C500.999847,167.666519 500.999847,334.333038 500.999939,500.999786 
	C422.500000,501.000000 344.000000,501.000000 265.000000,501.000000 
M211.553543,278.928864 
	C211.647110,278.626617 211.740692,278.324371 211.977386,277.213867 
	C212.951706,274.999542 213.422745,271.404785 214.995316,270.831482 
	C219.594574,269.154663 224.632965,268.682373 229.275848,267.781433 
	C229.997955,271.349274 230.571548,274.183380 231.002808,277.664612 
	C231.052734,278.100708 231.102661,278.536774 231.021942,279.859558 
	C230.487381,282.621246 231.841782,283.082001 234.319366,283.053802 
	C245.340012,282.928497 256.363831,282.915070 267.384430,283.041901 
	C271.394165,283.087982 273.141785,281.523712 273.037476,277.460144 
	C272.883911,271.477356 272.997864,265.487701 272.997864,259.591492 
	C278.316040,257.795563 278.436829,257.727753 281.122864,262.513367 
	C284.302979,268.179260 287.346924,273.927521 290.259674,279.735504 
	C292.209564,283.623535 294.580383,284.155029 298.035889,281.598358 
	C301.028564,279.384094 304.080414,277.190735 307.336945,275.410309 
	C310.106323,273.896210 309.774994,272.238647 308.540527,270.030334 
	C304.991211,263.681122 301.497528,257.300842 297.814972,250.630249 
	C307.605469,242.530121 312.147919,232.442596 310.136597,219.502914 
	C308.835754,211.133926 299.138275,202.318192 290.993744,203.051132 
	C280.113281,204.030289 269.230713,204.986221 257.744110,206.005814 
	C256.287506,227.882385 254.846298,249.527283 253.405090,271.172180 
	C253.088837,271.115540 252.772568,271.058929 252.456314,271.002289 
	C251.920532,269.329681 251.384750,267.657043 251.008499,265.256470 
	C250.961411,264.517975 250.914322,263.779480 250.744080,262.270538 
	C250.111099,259.842285 249.478134,257.414001 249.003616,254.256607 
	C248.957077,253.516998 248.910553,252.777374 248.962662,251.225281 
	C247.924881,246.811584 246.887100,242.397903 246.009201,237.256607 
	C245.962234,236.518417 245.915253,235.780243 245.831177,234.372879 
	C245.509613,233.573029 245.188049,232.773163 245.013336,231.331543 
	C244.962006,230.898575 244.910660,230.465607 244.823380,229.363342 
	C244.509232,228.561340 244.195084,227.759354 244.026535,226.323166 
	C243.974045,225.895538 243.921555,225.467896 243.746460,224.270767 
	C242.179535,219.574860 241.109955,214.621902 238.864227,210.276825 
	C237.455856,207.551865 234.598038,204.560776 231.818298,203.811172 
	C228.163513,202.825638 223.946106,203.926620 219.330109,203.983994 
	C218.898071,204.035553 218.466019,204.087112 217.432068,204.123093 
	C216.946213,204.460175 216.460358,204.797256 215.344223,204.981918 
	C214.938843,205.322098 214.533447,205.662277 213.995316,206.429382 
	C213.995316,206.429382 213.936905,206.872635 213.310028,207.197037 
	C213.162964,208.115265 213.015900,209.033508 212.300781,210.220291 
	C211.918991,211.151016 211.537201,212.081741 210.992966,213.465210 
	C210.992966,213.465210 210.888870,213.934784 210.988434,213.980865 
	C210.988434,213.980865 210.904312,213.910324 210.281845,214.221619 
	C210.144608,215.129364 210.007355,216.037109 209.392776,217.116318 
	C209.315811,217.414719 209.238846,217.713104 208.999863,218.471405 
	C208.999863,218.471405 208.884460,218.945160 208.956329,218.972198 
	C208.956329,218.972198 208.924850,218.902161 208.299408,219.217773 
	C208.155746,220.130402 208.012085,221.043015 207.233582,222.310333 
	C205.208908,227.544098 203.184235,232.777863 200.997208,238.468719 
	C200.997208,238.468719 200.885757,238.940811 200.964508,238.977783 
	C200.964508,238.977783 200.917007,238.904892 200.294144,239.216095 
	C200.154205,240.121353 200.014267,241.026627 199.228195,242.318939 
	C198.137115,246.171509 197.046036,250.024063 195.458969,254.061676 
	C195.360931,254.367004 195.262878,254.672333 195.016327,255.766953 
	C192.996490,263.137268 190.976654,270.507568 188.460739,278.062134 
	C188.362411,278.367249 188.264084,278.672363 188.042236,279.791931 
	C189.149841,280.860321 190.205307,282.779877 191.373978,282.851440 
	C196.760925,283.181458 202.189163,283.167145 207.578766,282.859253 
	C208.723404,282.793854 209.768417,280.984741 211.023956,279.531830 
	C211.023956,279.531830 211.113586,279.063904 211.045593,279.039490 
	C211.045593,279.039490 211.062302,279.109772 211.553543,278.928864 
M93.700676,288.972717 
	C97.948128,285.677124 98.029388,284.364258 93.787811,279.240204 
	C78.191063,279.213348 62.594315,279.186493 46.364738,278.822235 
	C47.602097,276.569336 48.839458,274.316437 50.999073,272.006561 
	C66.011589,271.952484 81.024101,271.898376 96.773369,271.966797 
	C102.620667,270.756775 105.455971,266.583527 106.849464,261.286774 
	C109.687767,250.498260 111.898338,239.524323 115.192017,228.881943 
	C118.093567,219.506577 114.955063,213.892151 106.627541,210.133087 
	C84.778107,210.065292 62.928673,209.997513 41.039814,209.152802 
	C39.728500,200.822479 35.273190,196.823990 25.175152,196.983459 
	C19.332537,197.075729 15.501499,198.991440 16.130234,202.093414 
	C17.074081,206.750076 20.718197,207.610733 24.880411,206.989716 
	C28.572636,206.438812 30.264462,208.198563 31.004103,211.668259 
	C34.586655,228.474243 38.348488,245.242615 41.801540,262.074615 
	C42.124195,263.647369 41.196701,265.990448 40.055923,267.265961 
	C32.806801,275.371338 34.307159,284.161469 44.891102,289.000397 
	C60.915127,288.945099 76.939148,288.889832 93.700676,288.972717 
M315.000946,232.470795 
	C314.403748,238.834625 313.755554,245.194199 313.221436,251.563309 
	C312.439209,260.890686 311.579803,270.218323 311.190186,279.564056 
	C311.137268,280.833618 313.593689,283.335968 314.916595,283.355591 
	C325.181427,283.507782 335.453949,283.223877 345.722687,283.008270 
	C354.770721,282.818298 361.891449,279.167206 365.645447,270.669556 
	C369.184998,262.657257 369.925476,254.634033 363.780609,247.232224 
	C361.768005,244.807922 361.555176,242.665482 364.270966,240.086853 
	C370.967072,233.728989 371.313629,225.264084 369.478424,217.175507 
	C367.468750,208.317886 360.253815,204.308899 350.606262,204.244827 
	C339.453674,204.170731 328.288727,205.959335 317.085693,206.943008 
	C316.357605,215.531525 315.679443,223.530945 315.000946,232.470795 
M171.409729,277.096375 
	C187.423813,262.687073 192.670334,244.610413 188.935074,223.826248 
	C187.020233,213.171494 180.919876,205.354111 169.806580,203.418884 
	C159.564835,201.635452 149.415909,203.609512 139.609253,206.877808 
	C138.527969,207.238174 137.284470,208.770401 137.114609,209.908173 
	C136.510452,213.955078 136.203522,218.060715 136.029205,222.154556 
	C135.607391,232.060501 135.331451,241.972595 134.972076,251.881332 
	C134.936737,252.856216 134.676712,253.821350 134.612915,254.797043 
	C134.065842,263.163513 133.434372,271.527802 133.147369,279.903687 
	C133.113190,280.901093 134.997940,282.865509 135.983810,282.859436 
	C147.855728,282.786102 160.121124,285.001343 171.409729,277.096375 
M401.963654,221.506180 
	C400.537994,224.922684 399.112335,228.339188 397.308716,232.661453 
	C393.935181,223.784012 390.937897,215.987320 388.011627,208.164078 
	C386.076263,202.990021 384.335754,202.224503 379.203918,204.344513 
	C376.960083,205.271439 374.711731,206.425140 372.358521,206.794266 
	C368.757874,207.359070 368.490784,209.214584 369.509644,212.047638 
	C373.788666,223.946121 378.199371,235.800095 382.269287,247.769821 
	C384.451843,254.188721 388.027344,260.303528 387.035828,267.557007 
	C386.480011,271.623169 386.353241,275.746613 385.976624,279.839050 
	C385.656281,283.319855 387.744720,284.053864 390.542572,283.840088 
	C392.804321,283.667267 395.047577,283.061340 397.303375,283.036194 
	C406.997101,282.928040 406.735291,282.970551 407.089844,273.436554 
	C407.325043,267.112274 407.292969,260.405060 409.391510,254.595688 
	C414.835175,239.525803 421.413971,224.867065 427.480865,210.020187 
	C428.596222,207.290680 428.439087,205.254349 424.610992,204.920883 
	C421.064911,204.611984 417.547089,203.126251 414.063721,203.272827 
	C412.004150,203.359497 409.238678,205.148956 408.185516,206.976517 
	C405.691895,211.303528 404.030853,216.110321 401.963654,221.506180 
M92.354370,291.992981 
	C89.010162,290.048920 85.405144,290.794220 83.545403,293.421906 
	C82.093300,295.473633 81.668930,299.379059 82.613411,301.726135 
	C83.901581,304.927307 87.300018,307.327942 91.146751,305.841675 
	C93.374275,304.981079 96.011101,302.994110 96.731308,300.914185 
	C97.902977,297.530457 96.672783,294.071320 92.354370,291.992981 
M52.721901,301.757538 
	C52.810951,300.437958 53.109619,299.092224 52.948986,297.803772 
	C52.501930,294.217834 48.272682,290.823669 44.704159,291.010437 
	C40.043941,291.254364 37.408470,293.830841 38.185406,298.791199 
	C38.580029,301.310669 40.576694,304.548859 42.749363,305.598206 
	C46.204742,307.267090 49.821259,305.780853 52.721901,301.757538 
z"/>
<path fill="#FF924F" opacity="1.000000" stroke="none" 
	d="
M195.954971,253.876633 
	C197.046036,250.024063 198.137115,246.171509 199.776688,241.884003 
	C200.522446,240.600998 200.719727,239.752945 200.917007,238.904892 
	C200.917007,238.904892 200.964508,238.977783 201.042877,238.878387 
	C201.323227,238.539917 201.335999,238.284119 201.159546,238.011627 
	C203.184235,232.777863 205.208908,227.544098 207.776794,221.886887 
	C208.521606,220.609680 208.723221,219.755920 208.924835,218.902161 
	C208.924850,218.902161 208.956329,218.972198 209.038605,218.877502 
	C209.323746,218.542984 209.337418,218.285873 209.161865,218.011505 
	C209.238846,217.713104 209.315811,217.414719 209.856812,216.787201 
	C210.515320,215.608826 210.709824,214.759583 210.904327,213.910324 
	C210.904312,213.910324 210.988434,213.980865 211.055420,213.876862 
	C211.322815,213.535034 211.333801,213.281555 211.155411,213.012466 
	C211.537201,212.081741 211.918991,211.151016 212.811401,209.837250 
	C213.526978,208.593689 213.731949,207.733154 213.936905,206.872635 
	C213.936905,206.872635 213.995316,206.429382 214.317749,206.166595 
	C215.084946,205.647308 215.529739,205.390823 215.974518,205.134338 
	C216.460358,204.797256 216.946213,204.460175 217.906372,204.269745 
	C218.910645,204.321060 219.440643,204.225708 219.970627,204.130356 
	C223.946106,203.926620 228.163513,202.825638 231.818298,203.811172 
	C234.598038,204.560776 237.455856,207.551865 238.864227,210.276825 
	C241.109955,214.621902 242.179535,219.574860 243.667282,224.826477 
	C243.685715,225.907242 243.783340,226.432297 243.880951,226.957352 
	C244.195084,227.759354 244.509232,228.561340 244.702881,229.871826 
	C244.677094,230.911301 244.771790,231.442307 244.866486,231.973312 
	C245.188049,232.773163 245.509613,233.573029 245.682602,234.923859 
	C245.639114,236.311310 245.744217,237.147751 245.849319,237.984207 
	C246.887100,242.397903 247.924881,246.811584 248.747467,251.849228 
	C248.636581,253.310699 248.740875,254.148224 248.845154,254.985748 
	C249.478134,257.414001 250.111099,259.842285 250.638824,262.872528 
	C250.638718,264.311157 250.743851,265.147797 250.848969,265.984436 
	C251.384750,267.657043 251.920532,269.329681 252.456314,271.002289 
	C252.772568,271.058929 253.088837,271.115540 253.405090,271.172180 
	C254.846298,249.527283 256.287506,227.882385 257.744110,206.005814 
	C269.230713,204.986221 280.113281,204.030289 290.993744,203.051132 
	C299.138275,202.318192 308.835754,211.133926 310.136597,219.502914 
	C312.147919,232.442596 307.605469,242.530121 297.814972,250.630249 
	C301.497528,257.300842 304.991211,263.681122 308.540527,270.030334 
	C309.774994,272.238647 310.106323,273.896210 307.336945,275.410309 
	C304.080414,277.190735 301.028564,279.384094 298.035889,281.598358 
	C294.580383,284.155029 292.209564,283.623535 290.259674,279.735504 
	C287.346924,273.927521 284.302979,268.179260 281.122864,262.513367 
	C278.436829,257.727753 278.316040,257.795563 272.997864,259.591492 
	C272.997864,265.487701 272.883911,271.477356 273.037476,277.460144 
	C273.141785,281.523712 271.394165,283.087982 267.384430,283.041901 
	C256.363831,282.915070 245.340012,282.928497 234.319366,283.053802 
	C231.841782,283.082001 230.487381,282.621246 231.223206,279.239929 
	C231.331375,278.086029 231.238266,277.551758 231.145157,277.017517 
	C230.571548,274.183380 229.997955,271.349274 229.275848,267.781433 
	C224.632965,268.682373 219.594574,269.154663 214.995316,270.831482 
	C213.422745,271.404785 212.951706,274.999542 211.752884,277.780914 
	C211.340439,278.581970 211.185074,278.835907 211.062302,279.109772 
	C211.062302,279.109772 211.045593,279.039490 210.962982,279.132141 
	C210.680267,279.463501 210.673248,279.714905 210.859329,279.978973 
	C209.768417,280.984741 208.723404,282.793854 207.578766,282.859253 
	C202.189163,283.167145 196.760925,283.181458 191.373978,282.851440 
	C190.205307,282.779877 189.149841,280.860321 188.260162,279.219788 
	C188.671463,278.412048 188.831039,278.155457 188.956818,277.877869 
	C190.976654,270.507568 192.996490,263.137268 195.246750,255.207199 
	C195.670471,254.411606 195.829727,254.154663 195.954971,253.876633 
M224.940628,234.037064 
	C224.940628,234.037064 224.925842,234.105698 224.812759,233.566910 
	C224.254654,233.229752 223.696548,232.892578 223.138458,232.555420 
	C223.381927,233.360260 223.625397,234.165100 223.969772,235.747025 
	C222.547668,240.295914 221.125565,244.844818 219.359695,250.493271 
	C222.626755,249.787659 224.766907,249.325424 227.258667,248.988998 
	C227.217911,248.334641 227.177155,247.680267 226.824936,246.323898 
	C226.596298,244.874649 226.367645,243.425415 226.464340,241.514328 
	C226.267914,240.690918 226.071472,239.867493 225.305832,238.782089 
	C225.247635,238.177582 225.189453,237.573074 225.462219,236.511826 
	C225.264969,235.686111 225.067703,234.860397 224.940628,234.037064 
M240.425018,266.170227 
	C237.134903,266.987091 236.532166,268.534454 239.756393,271.236847 
	C241.458893,272.859741 243.161392,274.482666 245.320938,276.541260 
	C244.840973,274.699249 244.484634,273.331757 244.485367,271.446869 
	C244.283096,270.320953 244.080841,269.195007 243.424957,267.916504 
	C243.132797,267.730072 242.975052,267.463959 243.209229,266.536530 
	C243.718323,263.738739 243.718323,263.738739 238.375488,261.976776 
	C239.591904,263.808624 240.348877,264.948547 241.032196,265.998505 
	C241.032196,265.998505 241.093216,266.093719 240.425018,266.170227 
M290.049652,226.702606 
	C290.919189,222.537598 289.456451,220.495834 285.731781,221.056519 
	C283.195282,221.438339 280.639893,222.069870 278.269348,223.026825 
	C277.007233,223.536301 275.357574,224.870056 275.200592,226.012787 
	C274.630157,230.165359 274.616180,234.394379 274.392456,238.592773 
	C281.500671,238.950882 286.775208,235.172516 290.049652,226.702606 
M234.392319,246.722809 
	C235.566360,247.385773 236.701477,248.160110 237.954193,248.597977 
	C238.154221,248.667877 239.442459,247.003708 239.253220,246.533051 
	C238.801086,245.408661 237.767441,244.518112 236.968582,243.533142 
	C236.159027,244.369431 235.349472,245.205719 234.392319,246.722809 
M216.104019,244.218735 
	C215.717102,245.611588 215.330170,247.004456 214.943237,248.397308 
	C215.485458,248.478012 216.027664,248.558716 216.569885,248.639420 
	C216.569885,247.051834 216.569885,245.464249 216.104019,244.218735 
M211.213196,263.166046 
	C210.518005,263.082092 209.822800,262.998108 209.127609,262.914124 
	C209.150238,263.349792 209.172882,263.785461 209.195511,264.221130 
	C209.925308,264.034210 210.655121,263.847290 211.213196,263.166046 
M221.497162,235.113876 
	C220.905106,235.227097 220.313065,235.340317 219.721008,235.453537 
	C219.903275,235.812561 220.085526,236.171600 220.267792,236.530624 
	C220.709122,236.225464 221.150436,235.920288 221.497162,235.113876 
M218.355545,226.894791 
	C218.125336,226.936493 217.895126,226.978195 217.664917,227.019897 
	C217.892197,227.074020 218.119461,227.128143 218.355545,226.894791 
M203.715332,269.382935 
	C203.455948,269.416107 203.196579,269.449280 202.937195,269.482483 
	C202.994156,269.769745 203.051132,270.057007 203.108109,270.344269 
	C203.323792,270.134155 203.539474,269.924042 203.715332,269.382935 
M219.164246,238.873993 
	C218.827789,239.049515 218.491333,239.225052 218.154877,239.400574 
	C218.236053,239.505798 218.368958,239.712158 218.390671,239.701080 
	C218.721603,239.531815 219.038010,239.334167 219.164246,238.873993 
M245.521667,278.781189 
	C245.557068,278.606659 245.592468,278.432129 245.627884,278.257599 
	C245.511093,278.411865 245.394302,278.566132 245.521667,278.781189 
M209.218674,226.520493 
	C209.393311,226.555908 209.567963,226.591324 209.742599,226.626724 
	C209.588211,226.509796 209.433823,226.392883 209.218674,226.520493 
M235.591400,274.068054 
	C235.591400,274.068054 235.460373,273.877167 235.460373,273.877167 
	C235.460373,273.877167 235.473709,274.120300 235.591400,274.068054 
M234.389969,261.073975 
	C234.389969,261.073975 234.601212,261.016083 234.601212,261.016083 
	C234.601212,261.016083 234.393082,260.946472 234.389969,261.073975 
M222.870071,229.487152 
	C222.870071,229.487152 223.102112,229.566147 223.102112,229.566147 
	C223.102112,229.566147 222.955673,229.390015 222.870071,229.487152 
M234.128265,215.512955 
	C234.128265,215.512955 233.898880,215.434677 233.898880,215.434677 
	C233.898880,215.434677 234.043518,215.608856 234.128265,215.512955 
M231.500687,211.473343 
	C231.500687,211.473343 231.515579,211.513351 231.500687,211.473343 
M213.527786,261.501343 
	C213.527786,261.501343 213.486282,261.517059 213.527786,261.501343 
M232.500549,213.473328 
	C232.500549,213.473328 232.515396,213.513275 232.500549,213.473328 
M209.499237,229.527710 
	C209.499237,229.527710 209.483719,229.486679 209.499237,229.527710 
M233.472244,270.498901 
	C233.472244,270.498901 233.513626,270.483368 233.472244,270.498901 
M233.527344,258.500824 
	C233.527344,258.500824 233.486618,258.516174 233.527344,258.500824 
z"/>
<path fill="#FF914E" opacity="1.000000" stroke="none" 
	d="
M50.076824,272.063538 
	C48.839458,274.316437 47.602097,276.569336 47.039234,279.197693 
	C63.227329,279.723724 78.740929,279.874298 94.254532,280.024841 
	C98.029388,284.364258 97.948128,285.677124 92.978195,288.697510 
	C76.756874,288.313995 61.258076,288.197205 45.759064,288.129456 
	C45.158669,288.126831 44.556217,288.594818 43.954727,288.843506 
	C34.307159,284.161469 32.806801,275.371338 40.055923,267.265961 
	C41.196701,265.990448 42.124195,263.647369 41.801540,262.074615 
	C38.348488,245.242615 34.586655,228.474243 31.004103,211.668259 
	C30.264462,208.198563 28.572636,206.438812 24.880411,206.989716 
	C20.718197,207.610733 17.074081,206.750076 16.130234,202.093414 
	C15.501499,198.991440 19.332537,197.075729 25.175152,196.983459 
	C35.273190,196.823990 39.728500,200.822479 41.285637,209.898468 
	C63.371101,210.728790 85.210739,210.813446 107.050377,210.898102 
	C114.955063,213.892151 118.093567,219.506577 115.192017,228.881943 
	C111.898338,239.524323 109.687767,250.498260 106.849464,261.286774 
	C105.455971,266.583527 102.620667,270.756775 96.050888,271.685364 
	C80.983917,271.295227 66.639488,271.171722 52.294792,271.120514 
	C51.556602,271.117859 50.816200,271.734955 50.076824,272.063538 
z"/>
<path fill="#FF924F" opacity="1.000000" stroke="none" 
	d="
M315.001129,232.000580 
	C315.679443,223.530945 316.357605,215.531525 317.085693,206.943008 
	C328.288727,205.959335 339.453674,204.170731 350.606262,204.244827 
	C360.253815,204.308899 367.468750,208.317886 369.478424,217.175507 
	C371.313629,225.264084 370.967072,233.728989 364.270966,240.086853 
	C361.555176,242.665482 361.768005,244.807922 363.780609,247.232224 
	C369.925476,254.634033 369.184998,262.657257 365.645447,270.669556 
	C361.891449,279.167206 354.770721,282.818298 345.722687,283.008270 
	C335.453949,283.223877 325.181427,283.507782 314.916595,283.355591 
	C313.593689,283.335968 311.137268,280.833618 311.190186,279.564056 
	C311.579803,270.218323 312.439209,260.890686 313.221436,251.563309 
	C313.755554,245.194199 314.403748,238.834625 315.001129,232.000580 
M334.993927,228.129608 
	C334.602631,230.515396 334.211334,232.901184 333.820038,235.286957 
	C335.874207,234.854782 337.937073,234.459930 339.980865,233.983292 
	C345.743073,232.639450 347.317291,230.330795 346.544647,224.031357 
	C343.653015,224.031357 340.695557,224.202103 337.767670,223.981308 
	C335.065033,223.777527 334.771027,225.193558 334.993927,228.129608 
M339.943359,262.554932 
	C343.341919,260.925964 346.487915,257.849731 344.523132,254.614700 
	C341.400482,249.473145 336.972382,253.950211 333.186890,254.430527 
	C333.186890,258.161194 333.186890,261.455811 333.186890,265.445801 
	C335.480072,264.495911 337.367493,263.714081 339.943359,262.554932 
z"/>
<path fill="#FF924F" opacity="1.000000" stroke="none" 
	d="
M171.157684,277.367188 
	C160.121124,285.001343 147.855728,282.786102 135.983810,282.859436 
	C134.997940,282.865509 133.113190,280.901093 133.147369,279.903687 
	C133.434372,271.527802 134.065842,263.163513 134.612915,254.797043 
	C134.676712,253.821350 134.936737,252.856216 134.972076,251.881332 
	C135.331451,241.972595 135.607391,232.060501 136.029205,222.154556 
	C136.203522,218.060715 136.510452,213.955078 137.114609,209.908173 
	C137.284470,208.770401 138.527969,207.238174 139.609253,206.877808 
	C149.415909,203.609512 159.564835,201.635452 169.806580,203.418884 
	C180.919876,205.354111 187.020233,213.171494 188.935074,223.826248 
	C192.670334,244.610413 187.423813,262.687073 171.157684,277.367188 
M166.932022,249.324585 
	C167.980469,245.773834 169.105713,242.243530 170.058411,238.667267 
	C171.323730,233.917435 169.935699,229.473816 167.996674,225.230438 
	C165.644257,220.082336 161.272980,222.438171 157.794220,223.230637 
	C156.577301,223.507858 155.371613,226.260880 155.147446,228.009766 
	C154.501892,233.045944 154.336746,238.145218 154.025589,243.222336 
	C153.644806,249.435944 153.307358,255.652191 152.906815,262.641296 
	C160.612549,260.632629 164.426025,256.234314 166.932022,249.324585 
z"/>
<path fill="#FF9350" opacity="1.000000" stroke="none" 
	d="
M401.998444,221.114670 
	C404.030853,216.110321 405.691895,211.303528 408.185516,206.976517 
	C409.238678,205.148956 412.004150,203.359497 414.063721,203.272827 
	C417.547089,203.126251 421.064911,204.611984 424.610992,204.920883 
	C428.439087,205.254349 428.596222,207.290680 427.480865,210.020187 
	C421.413971,224.867065 414.835175,239.525803 409.391510,254.595688 
	C407.292969,260.405060 407.325043,267.112274 407.089844,273.436554 
	C406.735291,282.970551 406.997101,282.928040 397.303375,283.036194 
	C395.047577,283.061340 392.804321,283.667267 390.542572,283.840088 
	C387.744720,284.053864 385.656281,283.319855 385.976624,279.839050 
	C386.353241,275.746613 386.480011,271.623169 387.035828,267.557007 
	C388.027344,260.303528 384.451843,254.188721 382.269287,247.769821 
	C378.199371,235.800095 373.788666,223.946121 369.509644,212.047638 
	C368.490784,209.214584 368.757874,207.359070 372.358521,206.794266 
	C374.711731,206.425140 376.960083,205.271439 379.203918,204.344513 
	C384.335754,202.224503 386.076263,202.990021 388.011627,208.164078 
	C390.937897,215.987320 393.935181,223.784012 397.308716,232.661453 
	C399.112335,228.339188 400.537994,224.922684 401.998444,221.114670 
z"/>
<path fill="#FF065A" opacity="1.000000" stroke="none" 
	d="
M92.756813,292.017273 
	C96.672783,294.071320 97.902977,297.530457 96.731308,300.914185 
	C96.011101,302.994110 93.374275,304.981079 91.146751,305.841675 
	C87.300018,307.327942 83.901581,304.927307 82.613411,301.726135 
	C81.668930,299.379059 82.093300,295.473633 83.545403,293.421906 
	C85.405144,290.794220 89.010162,290.048920 92.756813,292.017273 
z"/>
<path fill="#FF065A" opacity="1.000000" stroke="none" 
	d="
M52.430443,302.034729 
	C49.821259,305.780853 46.204742,307.267090 42.749363,305.598206 
	C40.576694,304.548859 38.580029,301.310669 38.185406,298.791199 
	C37.408470,293.830841 40.043941,291.254364 44.704159,291.010437 
	C48.272682,290.823669 52.501930,294.217834 52.948986,297.803772 
	C53.109619,299.092224 52.810951,300.437958 52.430443,302.034729 
z"/>
<path fill="#FFE4D3" opacity="1.000000" stroke="none" 
	d="
M106.838959,210.515594 
	C85.210739,210.813446 63.371101,210.728790 41.305351,210.286926 
	C62.928673,209.997513 84.778107,210.065292 106.838959,210.515594 
z"/>
<path fill="#FFAD7A" opacity="1.000000" stroke="none" 
	d="
M44.422913,288.921936 
	C44.556217,288.594818 45.158669,288.126831 45.759064,288.129456 
	C61.258076,288.197205 76.756874,288.313995 92.609436,288.628418 
	C76.939148,288.889832 60.915127,288.945099 44.422913,288.921936 
z"/>
<path fill="#FFAD7A" opacity="1.000000" stroke="none" 
	d="
M94.021172,279.632507 
	C78.740929,279.874298 63.227329,279.723724 47.355648,279.366394 
	C62.594315,279.186493 78.191063,279.213348 94.021172,279.632507 
z"/>
<path fill="#FFAD7A" opacity="1.000000" stroke="none" 
	d="
M50.537949,272.035034 
	C50.816200,271.734955 51.556602,271.117859 52.294792,271.120514 
	C66.639488,271.171722 80.983917,271.295227 95.682510,271.624146 
	C81.024101,271.898376 66.011589,271.952484 50.537949,272.035034 
z"/>
<path fill="#FF9350" opacity="1.000000" stroke="none" 
	d="
M210.593079,214.065979 
	C210.709824,214.759583 210.515320,215.608826 210.095474,216.701462 
	C210.007355,216.037109 210.144608,215.129364 210.593079,214.065979 
z"/>
<path fill="#FF9350" opacity="1.000000" stroke="none" 
	d="
M250.928741,265.620453 
	C250.743851,265.147797 250.638718,264.311157 250.700409,263.257751 
	C250.914322,263.779480 250.961411,264.517975 250.928741,265.620453 
z"/>
<path fill="#FF9350" opacity="1.000000" stroke="none" 
	d="
M208.612122,219.059967 
	C208.723221,219.755920 208.521606,220.609680 208.094208,221.709534 
	C208.012085,221.043015 208.155746,220.130402 208.612122,219.059967 
z"/>
<path fill="#FF9350" opacity="1.000000" stroke="none" 
	d="
M213.623474,207.034836 
	C213.731949,207.733154 213.526978,208.593689 213.095428,209.702972 
	C213.015900,209.033508 213.162964,208.115265 213.623474,207.034836 
z"/>
<path fill="#FF9350" opacity="1.000000" stroke="none" 
	d="
M248.924393,254.621185 
	C248.740875,254.148224 248.636581,253.310699 248.698151,252.255463 
	C248.910553,252.777374 248.957077,253.516998 248.924393,254.621185 
z"/>
<path fill="#FF9350" opacity="1.000000" stroke="none" 
	d="
M200.605576,239.060486 
	C200.719727,239.752945 200.522446,240.600998 200.099762,241.690460 
	C200.014267,241.026627 200.154205,240.121353 200.605576,239.060486 
z"/>
<path fill="#FF9350" opacity="1.000000" stroke="none" 
	d="
M245.929260,237.620407 
	C245.744217,237.147751 245.639114,236.311310 245.701157,235.258453 
	C245.915253,235.780243 245.962234,236.518417 245.929260,237.620407 
z"/>
<path fill="#FF9350" opacity="1.000000" stroke="none" 
	d="
M231.073975,277.341064 
	C231.238266,277.551758 231.331375,278.086029 231.288544,278.796570 
	C231.102661,278.536774 231.052734,278.100708 231.073975,277.341064 
z"/>
<path fill="#FF9350" opacity="1.000000" stroke="none" 
	d="
M219.650360,204.057175 
	C219.440643,204.225708 218.910645,204.321060 218.207321,204.277542 
	C218.466019,204.087112 218.898071,204.035553 219.650360,204.057175 
z"/>
<path fill="#FF9350" opacity="1.000000" stroke="none" 
	d="
M215.659363,205.058136 
	C215.529739,205.390823 215.084946,205.647308 214.384109,205.953125 
	C214.533447,205.662277 214.938843,205.322098 215.659363,205.058136 
z"/>
<path fill="#FF9350" opacity="1.000000" stroke="none" 
	d="
M244.939911,231.652435 
	C244.771790,231.442307 244.677094,230.911301 244.720856,230.206467 
	C244.910660,230.465607 244.962006,230.898575 244.939911,231.652435 
z"/>
<path fill="#FF9350" opacity="1.000000" stroke="none" 
	d="
M243.953751,226.640259 
	C243.783340,226.432297 243.685715,225.907242 243.728577,225.211227 
	C243.921555,225.467896 243.974045,225.895538 243.953751,226.640259 
z"/>
<path fill="#FF9350" opacity="1.000000" stroke="none" 
	d="
M211.074188,213.238831 
	C211.333801,213.281555 211.322815,213.535034 211.005646,213.853821 
	C210.888870,213.934784 210.992966,213.465210 211.074188,213.238831 
z"/>
<path fill="#FF9350" opacity="1.000000" stroke="none" 
	d="
M210.941650,279.755402 
	C210.673248,279.714905 210.680267,279.463501 210.996979,279.144348 
	C211.113586,279.063904 211.023956,279.531830 210.941650,279.755402 
z"/>
<path fill="#FF9350" opacity="1.000000" stroke="none" 
	d="
M209.080872,218.241455 
	C209.337418,218.285873 209.323746,218.542984 209.002655,218.863983 
	C208.884460,218.945160 208.999863,218.471405 209.080872,218.241455 
z"/>
<path fill="#FF9350" opacity="1.000000" stroke="none" 
	d="
M211.307922,279.019318 
	C211.185074,278.835907 211.340439,278.581970 211.681335,278.185059 
	C211.740692,278.324371 211.647110,278.626617 211.307922,279.019318 
z"/>
<path fill="#FF9350" opacity="1.000000" stroke="none" 
	d="
M188.708771,277.970001 
	C188.831039,278.155457 188.671463,278.412048 188.321930,278.812561 
	C188.264084,278.672363 188.362411,278.367249 188.708771,277.970001 
z"/>
<path fill="#FF9350" opacity="1.000000" stroke="none" 
	d="
M201.078369,238.240173 
	C201.335999,238.284119 201.323227,238.539917 201.003494,238.859894 
	C200.885757,238.940811 200.997208,238.468719 201.078369,238.240173 
z"/>
<path fill="#FF9350" opacity="1.000000" stroke="none" 
	d="
M195.706970,253.969147 
	C195.829727,254.154663 195.670471,254.411606 195.321014,254.812561 
	C195.262878,254.672333 195.360931,254.367004 195.706970,253.969147 
z"/>
<path fill="#000000" opacity="1.000000" stroke="none" 
	d="
M290.005554,227.088470 
	C286.775208,235.172516 281.500671,238.950882 274.392456,238.592773 
	C274.616180,234.394379 274.630157,230.165359 275.200592,226.012787 
	C275.357574,224.870056 277.007233,223.536301 278.269348,223.026825 
	C280.639893,222.069870 283.195282,221.438339 285.731781,221.056519 
	C289.456451,220.495834 290.919189,222.537598 290.005554,227.088470 
z"/>
<path fill="#000000" opacity="1.000000" stroke="none" 
	d="
M225.131256,236.968567 
	C225.189453,237.573074 225.247635,238.177582 225.633179,239.280060 
	C226.020020,240.510742 226.079514,241.243454 226.139008,241.976166 
	C226.367645,243.425415 226.596298,244.874649 226.905487,246.975189 
	C226.959702,248.038696 226.933380,248.450943 226.907043,248.863190 
	C224.766907,249.325424 222.626755,249.787659 219.359695,250.493271 
	C221.125565,244.844818 222.547668,240.295914 224.022354,235.126663 
	C224.358566,234.372772 224.642212,234.239243 224.925842,234.105698 
	C224.925842,234.105698 224.940628,234.037064 224.947632,234.404465 
	C225.013504,235.504105 225.072372,236.236328 225.131256,236.968567 
z"/>
<path fill="#000000" opacity="1.000000" stroke="none" 
	d="
M244.128311,271.964264 
	C244.484634,273.331757 244.840973,274.699249 245.320938,276.541260 
	C243.161392,274.482666 241.458893,272.859741 239.401642,270.751190 
	C239.729019,268.874939 240.411118,267.484314 241.093216,266.093719 
	C241.093216,266.093719 241.032196,265.998505 241.339645,266.086243 
	C242.081970,266.488708 242.516830,266.803406 242.951706,267.118134 
	C242.975052,267.463959 243.132797,267.730072 243.684372,268.382568 
	C244.005295,269.887177 244.066803,270.925720 244.128311,271.964264 
z"/>
<path fill="#FF9350" opacity="1.000000" stroke="none" 
	d="
M234.466125,246.382401 
	C235.349472,245.205719 236.159027,244.369431 236.968597,243.533142 
	C237.767441,244.518112 238.801086,245.408661 239.253220,246.533051 
	C239.442459,247.003708 238.154221,248.667877 237.954193,248.597977 
	C236.701477,248.160110 235.566360,247.385773 234.466125,246.382401 
z"/>
<path fill="#FF9350" opacity="1.000000" stroke="none" 
	d="
M243.080475,266.827332 
	C242.516830,266.803406 242.081970,266.488708 241.376465,266.131226 
	C240.348877,264.948547 239.591904,263.808624 238.375488,261.976776 
	C243.718323,263.738739 243.718323,263.738739 243.080475,266.827332 
z"/>
<path fill="#FF9350" opacity="1.000000" stroke="none" 
	d="
M216.336945,244.047699 
	C216.569885,245.464249 216.569885,247.051834 216.569885,248.639420 
	C216.027664,248.558716 215.485458,248.478012 214.943237,248.397308 
	C215.330170,247.004456 215.717102,245.611588 216.336945,244.047699 
z"/>
<path fill="#FF9350" opacity="1.000000" stroke="none" 
	d="
M240.759125,266.131958 
	C240.411118,267.484314 239.729019,268.874939 239.086243,270.608093 
	C236.532166,268.534454 237.134903,266.987091 240.759125,266.131958 
z"/>
<path fill="#FF9350" opacity="1.000000" stroke="none" 
	d="
M211.299072,263.413208 
	C210.655121,263.847290 209.925308,264.034210 209.195511,264.221130 
	C209.172882,263.785461 209.150238,263.349792 209.127609,262.914124 
	C209.822800,262.998108 210.518005,263.082092 211.299072,263.413208 
z"/>
<path fill="#FF9350" opacity="1.000000" stroke="none" 
	d="
M221.544464,235.364502 
	C221.150436,235.920288 220.709122,236.225464 220.267792,236.530624 
	C220.085526,236.171600 219.903275,235.812561 219.721008,235.453537 
	C220.313065,235.340317 220.905106,235.227097 221.544464,235.364502 
z"/>
<path fill="#FF9350" opacity="1.000000" stroke="none" 
	d="
M224.869293,233.836304 
	C224.642212,234.239243 224.358566,234.372772 223.971893,234.738129 
	C223.625397,234.165100 223.381927,233.360260 223.138458,232.555420 
	C223.696548,232.892578 224.254654,233.229752 224.869293,233.836304 
z"/>
<path fill="#FF9350" opacity="1.000000" stroke="none" 
	d="
M244.306839,271.705566 
	C244.066803,270.925720 244.005295,269.887177 243.911194,268.458862 
	C244.080841,269.195007 244.283096,270.320953 244.306839,271.705566 
z"/>
<path fill="#FF9350" opacity="1.000000" stroke="none" 
	d="
M218.351135,227.038528 
	C218.119461,227.128143 217.892197,227.074020 217.664917,227.019897 
	C217.895126,226.978195 218.125336,226.936493 218.351135,227.038528 
z"/>
<path fill="#FF9350" opacity="1.000000" stroke="none" 
	d="
M203.735229,269.548431 
	C203.539474,269.924042 203.323792,270.134155 203.108109,270.344269 
	C203.051132,270.057007 202.994156,269.769745 202.937195,269.482483 
	C203.196579,269.449280 203.455948,269.416107 203.735229,269.548431 
z"/>
<path fill="#FF9350" opacity="1.000000" stroke="none" 
	d="
M219.261017,239.008575 
	C219.038010,239.334167 218.721603,239.531815 218.390671,239.701080 
	C218.368958,239.712158 218.236053,239.505798 218.154877,239.400574 
	C218.491333,239.225052 218.827789,239.049515 219.261017,239.008575 
z"/>
<path fill="#FF9350" opacity="1.000000" stroke="none" 
	d="
M226.301666,241.745239 
	C226.079514,241.243454 226.020020,240.510742 225.917786,239.411057 
	C226.071472,239.867493 226.267914,240.690918 226.301666,241.745239 
z"/>
<path fill="#FF9350" opacity="1.000000" stroke="none" 
	d="
M245.399597,278.750793 
	C245.394302,278.566132 245.511093,278.411865 245.627869,278.257599 
	C245.592468,278.432129 245.557068,278.606659 245.399597,278.750793 
z"/>
<path fill="#FF9350" opacity="1.000000" stroke="none" 
	d="
M227.082855,248.926086 
	C226.933380,248.450943 226.959702,248.038696 227.061218,247.326187 
	C227.177155,247.680267 227.217911,248.334641 227.082855,248.926086 
z"/>
<path fill="#FF9350" opacity="1.000000" stroke="none" 
	d="
M209.249054,226.398224 
	C209.433823,226.392883 209.588211,226.509796 209.742599,226.626724 
	C209.567963,226.591324 209.393311,226.555908 209.249054,226.398224 
z"/>
<path fill="#FF9350" opacity="1.000000" stroke="none" 
	d="
M225.296722,236.740204 
	C225.072372,236.236328 225.013504,235.504105 224.912537,234.403275 
	C225.067703,234.860397 225.264969,235.686111 225.296722,236.740204 
z"/>
<path fill="#FF9350" opacity="1.000000" stroke="none" 
	d="
M235.532562,274.094177 
	C235.473709,274.120300 235.460373,273.877167 235.460373,273.877167 
	C235.460373,273.877167 235.591400,274.068054 235.532562,274.094177 
z"/>
<path fill="#FF9350" opacity="1.000000" stroke="none" 
	d="
M234.391525,261.010223 
	C234.393082,260.946472 234.601212,261.016083 234.601212,261.016083 
	C234.601212,261.016083 234.389969,261.073975 234.391525,261.010223 
z"/>
<path fill="#FF9350" opacity="1.000000" stroke="none" 
	d="
M222.912872,229.438583 
	C222.955673,229.390015 223.102112,229.566147 223.102112,229.566147 
	C223.102112,229.566147 222.870071,229.487152 222.912872,229.438583 
z"/>
<path fill="#FF9350" opacity="1.000000" stroke="none" 
	d="
M234.085892,215.560913 
	C234.043518,215.608856 233.898880,215.434677 233.898880,215.434677 
	C233.898880,215.434677 234.128265,215.512955 234.085892,215.560913 
z"/>
<path fill="#FF9350" opacity="1.000000" stroke="none" 
	d="
M231.508133,211.493347 
	C231.515579,211.513351 231.500687,211.473343 231.508133,211.493347 
z"/>
<path fill="#FF9350" opacity="1.000000" stroke="none" 
	d="
M213.507034,261.509216 
	C213.486282,261.517059 213.527786,261.501343 213.507034,261.509216 
z"/>
<path fill="#FF9350" opacity="1.000000" stroke="none" 
	d="
M232.507965,213.493301 
	C232.515396,213.513275 232.500549,213.473328 232.507965,213.493301 
z"/>
<path fill="#FF9350" opacity="1.000000" stroke="none" 
	d="
M209.491486,229.507202 
	C209.483719,229.486679 209.499237,229.527710 209.491486,229.507202 
z"/>
<path fill="#FF9350" opacity="1.000000" stroke="none" 
	d="
M233.492935,270.491150 
	C233.513626,270.483368 233.472244,270.498901 233.492935,270.491150 
z"/>
<path fill="#FF9350" opacity="1.000000" stroke="none" 
	d="
M233.506989,258.508484 
	C233.486618,258.516174 233.527344,258.500824 233.506989,258.508484 
z"/>
<path fill="#000000" opacity="1.000000" stroke="none" 
	d="
M334.996155,227.691772 
	C334.771027,225.193558 335.065033,223.777527 337.767670,223.981308 
	C340.695557,224.202103 343.653015,224.031357 346.544647,224.031357 
	C347.317291,230.330795 345.743073,232.639450 339.980865,233.983292 
	C337.937073,234.459930 335.874207,234.854782 333.820038,235.286957 
	C334.211334,232.901184 334.602631,230.515396 334.996155,227.691772 
z"/>
<path fill="#000000" opacity="1.000000" stroke="none" 
	d="
M339.599121,262.743591 
	C337.367493,263.714081 335.480072,264.495911 333.186890,265.445801 
	C333.186890,261.455811 333.186890,258.161194 333.186890,254.430527 
	C336.972382,253.950211 341.400482,249.473145 344.523132,254.614700 
	C346.487915,257.849731 343.341919,260.925964 339.599121,262.743591 
z"/>
<path fill="#000000" opacity="1.000000" stroke="none" 
	d="
M166.712036,249.652618 
	C164.426025,256.234314 160.612549,260.632629 152.906815,262.641296 
	C153.307358,255.652191 153.644806,249.435944 154.025589,243.222336 
	C154.336746,238.145218 154.501892,233.045944 155.147446,228.009766 
	C155.371613,226.260880 156.577301,223.507858 157.794220,223.230637 
	C161.272980,222.438171 165.644257,220.082336 167.996674,225.230438 
	C169.935699,229.473816 171.323730,233.917435 170.058411,238.667267 
	C169.105713,242.243530 167.980469,245.773834 166.712036,249.652618 
z"/>
</svg>