<svg version="1.1" id="Layer_1" xmlns="http://www.w3.org/2000/svg" xmlns:xlink="http://www.w3.org/1999/xlink" x="0px" y="0px"
	 width="100%" viewBox="0 0 500 500" enable-background="new 0 0 500 500" xml:space="preserve">
<path fill="#000000" opacity="1.000000" stroke="none" 
	d="
M350.000000,501.000000 
	C233.333359,501.000000 117.166725,501.000000 1.000062,501.000000 
	C1.000041,334.333405 1.000041,167.666809 1.000021,1.000152 
	C167.666550,1.000101 334.333099,1.000101 500.999756,1.000051 
	C500.999817,167.666519 500.999817,334.333038 500.999908,500.999786 
	C450.833344,501.000000 400.666656,501.000000 350.000000,501.000000 
M353.642151,143.129166 
	C351.983398,143.086212 350.324677,143.006546 348.665894,143.005630 
	C293.136993,142.975266 237.608078,142.952408 181.997330,142.128983 
	C181.674622,140.887878 181.295853,139.658279 181.038101,138.403824 
	C179.051285,128.733887 176.066360,119.967995 167.416779,113.583275 
	C154.348984,103.937241 139.737167,109.509422 125.855927,108.092400 
	C125.165527,108.021935 124.361549,108.683037 123.666855,109.097916 
	C119.300789,111.705368 116.750435,118.308502 118.139923,123.335884 
	C119.574966,128.528030 124.716431,132.861969 129.884171,132.971848 
	C135.543900,133.092194 141.211060,132.889923 146.869400,133.039429 
	C150.545303,133.136566 153.277817,134.261368 154.122147,138.713211 
	C155.996735,148.596970 158.439423,158.372101 160.594635,168.203751 
	C164.072540,184.069336 167.550430,199.935135 170.945877,215.818481 
	C175.156540,235.515152 179.015732,255.291382 183.537704,274.915497 
	C186.686722,288.581299 186.931564,288.357422 176.924179,298.648956 
	C167.599335,308.238556 165.529739,319.840576 170.170410,332.080688 
	C174.551895,343.637207 183.484848,350.260620 196.765152,352.032104 
	C198.504868,352.354401 200.253647,352.993042 201.982681,352.943359 
	C208.901611,352.744659 215.812393,352.101868 222.729813,352.042480 
	C242.526505,351.872498 262.324951,351.907166 282.497314,352.016846 
	C282.497314,352.016846 282.901093,352.055145 283.333252,352.825043 
	C294.126556,352.883057 304.919922,352.964294 315.713165,352.953766 
	C316.551453,352.952942 317.389099,352.308319 318.966003,352.020050 
	C327.633942,350.044922 329.674286,344.521027 329.893707,339.240601 
	C330.137726,333.368561 324.987091,327.927673 318.679230,326.195618 
	C278.799866,326.185760 238.920532,326.175873 198.320190,326.012207 
	C192.511246,321.954498 192.411865,321.118378 197.172485,316.377289 
	C199.649719,313.910217 202.305328,311.593292 204.549393,308.929688 
	C206.573364,306.527344 208.871765,305.930969 211.902695,305.938538 
	C249.373672,306.032471 286.851379,305.604797 324.312683,306.213898 
	C337.444489,306.427429 350.779968,296.282715 353.977539,284.423798 
	C361.399872,256.896271 368.689423,229.332840 375.992249,201.773209 
	C378.066193,193.946320 380.906036,186.185608 381.814331,178.214462 
	C383.836761,160.465805 371.175140,146.818054 353.642151,143.129166 
M291.001984,374.811951 
	C290.420410,386.754211 295.857574,392.313110 303.979065,395.475189 
	C311.310181,398.329559 320.400116,396.491516 326.358948,389.189941 
	C330.782837,383.769165 331.282471,377.424042 329.561646,371.325592 
	C327.541809,364.167450 321.907867,359.100494 314.810760,357.728455 
	C302.427795,355.334503 294.902374,360.981110 291.001984,374.811951 
M176.358459,386.890289 
	C180.242935,393.933380 186.922806,397.252594 194.223831,396.742310 
	C206.316544,395.897095 214.243256,387.584381 212.998962,375.168121 
	C212.188660,367.082581 207.805664,361.330688 200.311417,358.951080 
	C193.520370,356.794769 186.645691,357.055664 180.389023,361.972900 
	C173.513733,367.376282 172.273026,378.795258 176.358459,386.890289 
z"/>
<path fill="#FF914D" opacity="1.000000" stroke="none" 
	d="
M319.121979,326.963867 
	C324.987091,327.927673 330.137726,333.368561 329.893707,339.240601 
	C329.674286,344.521027 327.633942,350.044922 318.114807,351.932434 
	C305.809448,351.914948 294.355286,351.985046 282.901093,352.055115 
	C282.901093,352.055145 282.497314,352.016846 281.935913,351.735291 
	C280.229095,351.304962 279.083801,351.027557 277.938202,351.026276 
	C251.856522,350.996704 225.774796,350.985382 199.693161,351.028717 
	C198.430756,351.030823 197.169235,351.563080 195.907288,351.848450 
	C183.484848,350.260620 174.551895,343.637207 170.170410,332.080688 
	C165.529739,319.840576 167.599335,308.238556 176.924179,298.648956 
	C186.931564,288.357422 186.686722,288.581299 183.537704,274.915497 
	C179.015732,255.291382 175.156540,235.515152 170.945877,215.818481 
	C167.550430,199.935135 164.072540,184.069336 160.594635,168.203751 
	C158.439423,158.372101 155.996735,148.596970 154.122147,138.713211 
	C153.277817,134.261368 150.545303,133.136566 146.869400,133.039429 
	C141.211060,132.889923 135.543900,133.092194 129.884171,132.971848 
	C124.716431,132.861969 119.574966,128.528030 118.139923,123.335884 
	C116.750435,118.308502 119.300789,111.705368 123.666855,109.097916 
	C124.361549,108.683037 125.165527,108.021935 125.855927,108.092400 
	C139.737167,109.509422 154.348984,103.937241 167.416779,113.583275 
	C176.066360,119.967995 179.051285,128.733887 181.038101,138.403824 
	C181.295853,139.658279 181.674622,140.887878 182.263916,142.885956 
	C183.181534,143.754623 183.832550,143.964203 184.483551,143.964081 
	C241.007629,143.953934 297.531708,143.927643 354.055786,143.902466 
	C371.175140,146.818054 383.836761,160.465805 381.814331,178.214462 
	C380.906036,186.185608 378.066193,193.946320 375.992249,201.773209 
	C368.689423,229.332840 361.399872,256.896271 353.977539,284.423798 
	C350.779968,296.282715 337.444489,306.427429 324.312683,306.213898 
	C286.851379,305.604797 249.373672,306.032471 211.902695,305.938538 
	C208.871765,305.930969 206.573364,306.527344 204.549393,308.929688 
	C202.305328,311.593292 199.649719,313.910217 197.172485,316.377289 
	C192.411865,321.118378 192.511246,321.954498 199.034744,326.293640 
	C201.232101,326.715240 202.714859,326.977203 204.197693,326.977661 
	C242.505783,326.989655 280.813873,326.974396 319.121979,326.963867 
z"/>
<path fill="#FF0257" opacity="1.000000" stroke="none" 
	d="
M291.004944,374.376526 
	C294.902374,360.981110 302.427795,355.334503 314.810760,357.728455 
	C321.907867,359.100494 327.541809,364.167450 329.561646,371.325592 
	C331.282471,377.424042 330.782837,383.769165 326.358948,389.189941 
	C320.400116,396.491516 311.310181,398.329559 303.979065,395.475189 
	C295.857574,392.313110 290.420410,386.754211 291.004944,374.376526 
z"/>
<path fill="#FF0257" opacity="1.000000" stroke="none" 
	d="
M176.185120,386.536560 
	C172.273026,378.795258 173.513733,367.376282 180.389023,361.972900 
	C186.645691,357.055664 193.520370,356.794769 200.311417,358.951080 
	C207.805664,361.330688 212.188660,367.082581 212.998962,375.168121 
	C214.243256,387.584381 206.316544,395.897095 194.223831,396.742310 
	C186.922806,397.252594 180.242935,393.933380 176.185120,386.536560 
z"/>
<path fill="#FFE3D2" opacity="1.000000" stroke="none" 
	d="
M353.848969,143.515808 
	C297.531708,143.927643 241.007629,143.953934 184.483551,143.964081 
	C183.832550,143.964203 183.181534,143.754623 182.304840,143.285690 
	C237.608078,142.952408 293.136993,142.975266 348.665894,143.005630 
	C350.324677,143.006546 351.983398,143.086212 353.848969,143.515808 
z"/>
<path fill="#FFAD7A" opacity="1.000000" stroke="none" 
	d="
M318.900604,326.579742 
	C280.813873,326.974396 242.505783,326.989655 204.197693,326.977661 
	C202.714859,326.977203 201.232101,326.715240 199.395233,326.370544 
	C238.920532,326.175873 278.799866,326.185760 318.900604,326.579742 
z"/>
<path fill="#FFAD7A" opacity="1.000000" stroke="none" 
	d="
M196.336212,351.940308 
	C197.169235,351.563080 198.430756,351.030823 199.693161,351.028717 
	C225.774796,350.985382 251.856522,350.996704 277.938202,351.026276 
	C279.083801,351.027557 280.229095,351.304962 281.748596,351.657562 
	C262.324951,351.907166 242.526505,351.872498 222.729813,352.042480 
	C215.812393,352.101868 208.901611,352.744659 201.982681,352.943359 
	C200.253647,352.993042 198.504868,352.354401 196.336212,351.940308 
z"/>
<path fill="#FFFFFF" opacity="1.000000" stroke="none" 
	d="
M283.117188,352.440063 
	C294.355286,351.985046 305.809448,351.914948 317.745331,351.903870 
	C317.389099,352.308319 316.551453,352.952942 315.713165,352.953766 
	C304.919922,352.964294 294.126556,352.883057 283.117188,352.440063 
z"/>
</svg>